# xmcd CD database file
#
# Track frame offsets:
#	150
#	10717
#	28780
#	49405
#	70390
#	82982
#	100537
#	118535
#	130680
#	144045
#	163622
#	186267
#	197352
#	207372
#
# Disc length: 3010 seconds
#
# Revision: 4
# Processed by: cddbd v1.4PL0 Copyright (c) Steve Scherf et al.
# Submitted via: CDex 1.50Beta6
#
DISCID=b20bc00e
DTITLE=William So - Happy Singing Concert CD1
DYEAR=1900
DGENRE=
TTITLE0=Opening Teaser
TTITLE1=fire with no seasons
TTITLE2=believe it or not
TTITLE3=let me warm
TTITLE4=place with light
TTITLE5=never happened
TTITLE6=joking
TTITLE7=cut love
TTITLE8=Dream A Little Dream of Me
TTITLE9=never like to be alone
TTITLE10=cruel
TTITLE11=La La La Love Song
TTITLE12=hot desert
TTITLE13=mountain meets water
EXTD=
EXTT0=
EXTT1=
EXTT2=
EXTT3=
EXTT4=
EXTT5=
EXTT6=
EXTT7=
EXTT8=
EXTT9=
EXTT10=
EXTT11=
EXTT12=
EXTT13=
PLAYORDER=
